<svg width="528.955" height="77.295" viewBox="0 0 528.955 77.295" xmlns="http://www.w3.org/2000/svg"><g id="svgGroup" stroke-linecap="round" fill-rule="evenodd" font-size="9pt" stroke="#ebebeba3" stroke-width="0.20mm" fill="#ebebeba3" style="stroke:#ebebeba3;stroke-width:0.20mm;fill:#ebebeba3"><path d="M 0 75.977 L 0 62.598 L 6.885 62.598 L 6.885 15.381 L 0 15.381 L 0 1.953 L 30.469 1.953 L 52.295 55.371 L 72.559 1.953 L 103.467 1.953 L 103.467 15.381 L 96.582 15.381 L 96.582 62.598 L 103.369 62.598 L 103.369 75.977 L 75.684 75.977 L 75.684 62.598 L 80.762 62.598 L 80.762 20.02 L 58.594 75.098 L 44.873 75.098 L 22.314 21.484 L 22.314 62.598 L 27.832 62.598 L 27.832 75.977 L 0 75.977 Z M 303.955 38.77 L 303.955 25.391 L 327.1 25.391 L 327.1 29.785 Q 330.225 27.295 334.131 25.83 Q 338.037 24.365 342.188 24.365 A 27.419 27.419 0 0 1 346.837 24.739 Q 349.722 25.236 352.075 26.392 Q 356.201 28.418 358.545 32.568 A 23.507 23.507 0 0 1 362.183 29.272 Q 364.209 27.783 366.504 26.685 A 24.475 24.475 0 0 1 371.313 24.976 A 21.761 21.761 0 0 1 376.465 24.365 Q 385.742 24.365 390.723 29.492 Q 395.703 34.619 395.703 44.482 L 395.703 62.598 L 402.881 62.598 L 402.881 75.977 L 379.785 75.977 L 379.785 46.973 A 13.39 13.39 0 0 0 379.523 44.238 Q 379.17 42.549 378.345 41.256 A 7.55 7.55 0 0 0 377.563 40.234 Q 375.342 37.793 371.387 37.793 A 10.754 10.754 0 0 0 366.235 39.087 A 11.093 11.093 0 0 0 364.276 40.448 Q 363.393 41.203 362.515 42.209 A 24.134 24.134 0 0 0 361.426 43.555 A 12.132 12.132 0 0 1 361.475 44.653 L 361.475 45.801 L 361.475 62.598 L 368.799 62.598 L 368.799 75.977 L 345.703 75.977 L 345.703 46.875 A 11.441 11.441 0 0 0 345.513 44.749 A 9.222 9.222 0 0 0 345.068 43.164 A 8.764 8.764 0 0 0 344.025 41.195 A 7.739 7.739 0 0 0 343.311 40.332 A 8.015 8.015 0 0 0 340.649 38.501 Q 339.111 37.842 337.256 37.793 A 10.19 10.19 0 0 0 337.052 37.791 Q 335.521 37.791 333.924 38.249 A 14.433 14.433 0 0 0 332.202 38.867 A 10.398 10.398 0 0 0 329.821 40.323 Q 328.478 41.397 327.197 43.018 L 327.197 62.598 L 335.303 62.598 L 335.303 75.977 L 303.857 75.977 L 303.857 62.598 L 311.377 62.598 L 311.377 38.77 L 303.955 38.77 Z M 172.559 13.379 L 172.559 0 L 195.361 0 L 195.361 30.078 A 22.638 22.638 0 0 1 201.685 25.952 A 18.269 18.269 0 0 1 207.495 24.534 A 21.922 21.922 0 0 1 209.277 24.463 A 26.1 26.1 0 0 1 214.807 25.012 Q 219.994 26.137 223.242 29.565 A 16.268 16.268 0 0 1 226.868 35.846 Q 228.076 39.575 228.076 44.482 L 228.076 62.598 L 235.498 62.598 L 235.498 75.977 L 212.891 75.977 L 212.891 47.9 Q 212.891 44.567 211.598 42.346 A 7.6 7.6 0 0 0 210.791 41.211 A 6.752 6.752 0 0 0 205.882 38.784 A 8.66 8.66 0 0 0 205.371 38.77 Q 203.174 38.77 200.586 39.99 Q 197.998 41.211 195.361 43.555 L 195.361 62.598 L 202.783 62.598 L 202.783 75.977 L 172.559 75.977 L 172.559 62.598 L 180.371 62.598 L 180.371 13.379 L 172.559 13.379 Z M 496.973 13.379 L 496.973 0 L 519.092 0 L 519.092 62.598 L 528.955 62.598 L 528.955 75.977 L 504.053 75.977 L 504.053 74.023 A 28.677 28.677 0 0 1 498.657 76.172 A 20.425 20.425 0 0 1 493.066 76.953 A 28.348 28.348 0 0 1 485.931 76.081 A 24.852 24.852 0 0 1 482.397 74.878 Q 477.539 72.803 474.048 69.189 A 26.02 26.02 0 0 1 468.604 60.718 Q 466.65 55.859 466.65 50.293 A 28.317 28.317 0 0 1 467.781 42.213 A 25.993 25.993 0 0 1 468.579 39.917 Q 470.508 35.107 473.95 31.543 A 24.861 24.861 0 0 1 482.052 25.992 A 28.267 28.267 0 0 1 482.202 25.928 A 25.85 25.85 0 0 1 490.472 23.962 A 30.844 30.844 0 0 1 492.773 23.877 A 29.304 29.304 0 0 1 496.862 24.152 A 24.997 24.997 0 0 1 498.73 24.487 Q 501.514 25.098 504.053 26.221 L 504.053 13.379 L 496.973 13.379 Z M 272.461 75.977 L 272.461 73.242 Q 270.865 74.245 269.525 74.971 A 37.286 37.286 0 0 1 269.336 75.073 A 18.076 18.076 0 0 1 267.035 76.11 A 16.234 16.234 0 0 1 266.504 76.294 A 17.44 17.44 0 0 1 263.574 76.978 A 20.785 20.785 0 0 1 261.779 77.155 A 26.686 26.686 0 0 1 260.254 77.197 A 28.427 28.427 0 0 1 255.951 76.886 A 21.658 21.658 0 0 1 252.124 75.952 A 19.984 19.984 0 0 1 248.628 74.367 A 16.044 16.044 0 0 1 246.069 72.534 Q 243.604 70.361 242.285 67.407 A 15.399 15.399 0 0 1 240.978 61.632 A 17.866 17.866 0 0 1 240.967 60.986 A 16.12 16.12 0 0 1 241.66 56.21 A 14.757 14.757 0 0 1 242.31 54.492 A 14.17 14.17 0 0 1 246.191 49.39 A 16.89 16.89 0 0 1 249.813 47.097 A 21.706 21.706 0 0 1 252.417 46.069 A 23.684 23.684 0 0 1 256.63 45.136 A 32.159 32.159 0 0 1 260.84 44.873 Q 264.307 44.873 267.163 45.239 Q 270.02 45.605 272.461 46.143 L 272.461 44.58 A 8.318 8.318 0 0 0 272.311 42.96 A 6.144 6.144 0 0 0 271.729 41.284 Q 270.996 39.893 269.678 38.989 A 8.145 8.145 0 0 0 267.923 38.089 A 10.697 10.697 0 0 0 266.504 37.671 Q 264.648 37.256 262.451 37.256 A 39.811 39.811 0 0 0 258.645 37.429 Q 256.695 37.616 254.992 38.007 A 23.329 23.329 0 0 0 254.37 38.159 A 30.7 30.7 0 0 0 247.656 40.771 L 242.969 31.299 A 41.444 41.444 0 0 1 253.394 26.074 A 36.193 36.193 0 0 1 264.181 24.275 A 40.83 40.83 0 0 1 264.941 24.268 A 37.473 37.473 0 0 1 270.451 24.657 A 30.926 30.926 0 0 1 273.706 25.317 A 19.119 19.119 0 0 1 278.079 27.025 A 16.303 16.303 0 0 1 280.615 28.735 A 15.412 15.412 0 0 1 284.357 33.315 A 18.841 18.841 0 0 1 285.132 34.912 A 18.833 18.833 0 0 1 286.306 38.847 Q 286.652 40.675 286.739 42.766 A 34.421 34.421 0 0 1 286.768 44.189 L 286.768 62.598 L 293.555 62.598 L 293.555 75.977 L 272.461 75.977 Z M 459.521 53.857 L 422.266 53.857 L 422.412 55.371 Q 422.949 57.568 424.243 59.229 A 12.112 12.112 0 0 0 427.295 62.012 A 13.49 13.49 0 0 0 430.932 63.623 A 15.21 15.21 0 0 0 431.201 63.696 Q 433.35 64.258 435.547 64.258 A 32.251 32.251 0 0 0 438.656 64.113 A 27.946 27.946 0 0 0 439.722 63.989 A 35.479 35.479 0 0 0 443.555 63.257 A 42.25 42.25 0 0 0 447.168 62.183 Q 448.926 61.572 450.732 60.889 L 456.104 70.898 A 94.408 94.408 0 0 1 453.516 72.434 Q 452.279 73.14 451.151 73.726 A 56.762 56.762 0 0 1 451.001 73.804 A 32.879 32.879 0 0 1 446.484 75.732 A 30.483 30.483 0 0 1 446.338 75.781 A 27.333 27.333 0 0 1 442.174 76.804 A 30.767 30.767 0 0 1 441.357 76.929 A 35.686 35.686 0 0 1 438.882 77.179 Q 437.607 77.266 436.176 77.288 A 64.004 64.004 0 0 1 435.205 77.295 A 34.128 34.128 0 0 1 428.979 76.752 A 26.338 26.338 0 0 1 423.486 75.122 A 26.341 26.341 0 0 1 417.462 71.608 A 23.357 23.357 0 0 1 414.868 69.238 A 25.24 25.24 0 0 1 409.546 60.547 A 30.321 30.321 0 0 1 407.715 50 A 28.465 28.465 0 0 1 409.192 40.782 A 26.914 26.914 0 0 1 409.644 39.551 A 25.711 25.711 0 0 1 415.088 31.03 Q 418.604 27.393 423.486 25.293 A 25.95 25.95 0 0 1 431.326 23.333 A 31.616 31.616 0 0 1 434.326 23.193 A 30.589 30.589 0 0 1 439.906 23.68 A 23.51 23.51 0 0 1 444.897 25.171 Q 449.512 27.148 452.686 30.64 A 24.264 24.264 0 0 1 457.349 38.259 A 27.687 27.687 0 0 1 457.568 38.843 A 31.445 31.445 0 0 1 459.34 47.298 A 36.16 36.16 0 0 1 459.424 48.975 Q 459.57 50.195 459.595 51.392 A 23.596 23.596 0 0 1 459.6 51.873 A 25.877 25.877 0 0 1 459.521 53.857 Z M 114.319 40.591 A 26.865 26.865 0 0 0 112.5 50.488 A 31.755 31.755 0 0 0 112.508 51.181 A 27.802 27.802 0 0 0 114.429 60.913 A 25.498 25.498 0 0 0 119.873 69.385 A 24.302 24.302 0 0 0 121.361 70.79 A 26.086 26.086 0 0 0 128.345 75.098 A 25.448 25.448 0 0 0 132.901 76.533 A 30.694 30.694 0 0 0 139.404 77.197 Q 145.459 77.197 150.415 75.098 A 29.211 29.211 0 0 0 150.8 74.931 A 25.568 25.568 0 0 0 158.911 69.36 A 25.576 25.576 0 0 0 164.38 60.864 A 26.802 26.802 0 0 0 164.613 60.254 A 27.982 27.982 0 0 0 166.309 50.488 A 30.612 30.612 0 0 0 166.307 50.144 A 26.987 26.987 0 0 0 164.331 40.137 Q 162.354 35.303 158.789 31.689 A 25.02 25.02 0 0 0 157.818 30.756 A 26.419 26.419 0 0 0 150.269 25.977 A 25.518 25.518 0 0 0 146.749 24.781 A 29.002 29.002 0 0 0 139.404 23.877 Q 133.496 23.877 128.564 25.977 Q 123.633 28.076 120.068 31.689 A 26.137 26.137 0 0 0 114.502 40.137 A 25.891 25.891 0 0 0 114.319 40.591 Z M 127.1 50.488 A 14.833 14.833 0 0 0 127.5 53.989 A 12.884 12.884 0 0 0 128.076 55.786 A 13.286 13.286 0 0 0 130.034 59.16 A 12.274 12.274 0 0 0 130.737 59.961 Q 132.422 61.719 134.644 62.695 A 11.699 11.699 0 0 0 139.404 63.672 A 12.37 12.37 0 0 0 143.152 63.114 A 11.447 11.447 0 0 0 144.214 62.72 A 11.28 11.28 0 0 0 148.071 60.01 Q 149.707 58.252 150.635 55.835 A 14.001 14.001 0 0 0 151.481 52.183 A 17.166 17.166 0 0 0 151.562 50.488 A 17.076 17.076 0 0 0 151.301 47.437 A 13.653 13.653 0 0 0 150.635 45.02 A 12.912 12.912 0 0 0 149.199 42.254 A 11.225 11.225 0 0 0 148.071 40.869 Q 146.436 39.16 144.214 38.257 Q 141.992 37.354 139.404 37.402 Q 136.865 37.354 134.644 38.257 A 11.524 11.524 0 0 0 130.737 40.869 A 12.04 12.04 0 0 0 128.467 44.13 A 14.253 14.253 0 0 0 128.076 45.02 A 13.579 13.579 0 0 0 127.215 48.476 A 17.052 17.052 0 0 0 127.1 50.488 Z M 504.053 57.715 L 504.053 42.822 Q 502.344 40.234 499.634 38.794 A 11.636 11.636 0 0 0 494.095 37.401 A 12.289 12.289 0 0 0 493.896 37.402 A 13.165 13.165 0 0 0 493.643 37.4 A 11.579 11.579 0 0 0 489.136 38.281 A 11.833 11.833 0 0 0 485.229 40.918 A 12.297 12.297 0 0 0 482.824 44.432 A 14.244 14.244 0 0 0 482.568 45.02 A 13.019 13.019 0 0 0 481.729 48.258 A 16.753 16.753 0 0 0 481.592 50.439 A 15.682 15.682 0 0 0 481.901 53.613 A 12.849 12.849 0 0 0 482.568 55.835 A 12.77 12.77 0 0 0 484.155 58.692 A 11.292 11.292 0 0 0 485.229 59.937 A 11.394 11.394 0 0 0 489.136 62.5 A 14.25 14.25 0 0 0 493.58 63.461 A 16.116 16.116 0 0 0 493.896 63.477 A 12.128 12.128 0 0 0 498.387 62.506 A 11.557 11.557 0 0 0 499.731 61.816 Q 502.344 60.254 504.053 57.715 Z M 422.705 43.555 L 443.848 43.555 A 16.009 16.009 0 0 0 442.968 40.66 A 14.783 14.783 0 0 0 442.871 40.43 A 8.286 8.286 0 0 0 441.113 37.842 Q 439.99 36.719 438.257 36.06 A 9.151 9.151 0 0 0 436.642 35.621 Q 435.432 35.4 433.936 35.4 A 18.941 18.941 0 0 0 431.856 35.508 Q 430.421 35.667 429.272 36.06 A 10.817 10.817 0 0 0 427.421 36.883 A 8.561 8.561 0 0 0 426.025 37.866 A 9.171 9.171 0 0 0 423.926 40.479 A 14.779 14.779 0 0 0 422.705 43.555 Z M 272.461 61.816 L 272.461 55.371 L 260.742 55.371 A 7.205 7.205 0 0 0 258.545 55.713 A 6.572 6.572 0 0 0 256.778 56.573 A 6.192 6.192 0 0 0 256.616 56.689 A 4.844 4.844 0 0 0 255.249 58.252 A 4.082 4.082 0 0 0 254.786 59.666 A 5.224 5.224 0 0 0 254.736 60.4 A 5.046 5.046 0 0 0 255.254 62.696 A 5.124 5.124 0 0 0 256.372 64.16 Q 257.642 65.335 259.927 65.598 A 12.278 12.278 0 0 0 261.328 65.674 A 18.555 18.555 0 0 0 265.027 65.318 A 15.298 15.298 0 0 0 267.627 64.551 A 21.054 21.054 0 0 0 270.364 63.241 A 16.273 16.273 0 0 0 272.461 61.816 Z" vector-effect="non-scaling-stroke"/></g></svg>